<svg xmlns="http://www.w3.org/2000/svg" data-name="Layer 1" viewBox="0 0 512 512"><path d="M452,45H410.5V27a27,27,0,0,0-54,0V45h-201V27a27,27,0,0,0-54,0V45H60A37.54227,37.54227,0,0,0,22.5,82.5v392A37.54227,37.54227,0,0,0,60,512H452a37.54227,37.54227,0,0,0,37.5-37.5V82.5A37.54227,37.54227,0,0,0,452,45ZM371.5,27a12,12,0,0,1,24,0V79.78027a12,12,0,0,1-24,0Zm-255,0a12,12,0,0,1,24,0V79.78027a12,12,0,0,1-24,0Zm358,447.5A22.52554,22.52554,0,0,1,452,497H60a22.52554,22.52554,0,0,1-22.5-22.5V155.9668h437Zm0-333.5332H37.5V82.5A22.52554,22.52554,0,0,1,60,60h41.5V79.78027a27,27,0,0,0,54,0V60h201V79.78027a27,27,0,0,0,54,0V60H452a22.52554,22.52554,0,0,1,22.5,22.5ZM437,466.99414a7.5,7.5,0,1,0-7.5-7.5A7.49987,7.49987,0,0,0,437,466.99414ZM338.63239,295.7998a7.5,7.5,0,1,0-7.5,7.5A7.5,7.5,0,0,0,338.63239,295.7998ZM204,352.39282v32.95777a67.31616,67.31616,0,1,0,134.63232,0V332.54517a37.5,37.5,0,1,0-15,0v52.80542a52.31616,52.31616,0,1,1-104.63232,0V352.39282a70.09569,70.09569,0,0,0,62.5-69.593v-56.5a13.51508,13.51508,0,0,0-13.5-13.5H254.61145a15.00011,15.00011,0,1,0-.00012,15H266.5v55a55,55,0,0,1-110,0v-55h12.15771a14.9999,14.9999,0,1,0-.00012-15H155a13.51508,13.51508,0,0,0-13.5,13.5v56.5A70.09569,70.09569,0,0,0,204,352.39282Zm104.63232-56.593a22.5,22.5,0,1,1,22.5,22.5A22.52555,22.52555,0,0,1,308.63232,295.7998ZM377,466.99414a7.5,7.5,0,1,0-7.5-7.5A7.49987,7.49987,0,0,0,377,466.99414Zm30,0a7.5,7.5,0,1,0-7.5-7.5A7.49987,7.49987,0,0,0,407,466.99414Z"/></svg>