<svg xmlns="http://www.w3.org/2000/svg" viewBox="0 0 512 512"><path fill="#00bfb6" d="M256 507.1c92.6 0 173.5-50.1 217-124.7-43.2-75-124.2-125.5-217-125.5S82.2 307.3 39 382.4C82.5 457 163.4 507.1 256 507.1z"/><path fill="#ebdee5" d="M256 256.8c-27.8 0-54.4 4.5-79.4 12.9 6.2 38.3 39.4 67.6 79.4 67.6s73.2-29.3 79.4-67.6c-25-8.4-51.7-12.9-79.4-12.9z"/><path fill="#fff" d="M176.6 269.7c5.2 32.4 29.8 58.3 61.5 65.6 11.6-4.4 19.9-15.6 19.9-28.7v-46.9c0-.9-.1-1.9-.2-2.8H256c-27.7-.1-54.5 4.4-79.4 12.8z"/><path fill="#3dcac3" d="M78.5 330.7c-15.3 15.4-28.6 32.7-39.5 51.7 10.9 18.7 24.2 35.9 39.5 51.2V330.7z"/><path fill="#017068" d="M382 290.6v136c0 16.7-14 30.4-30.7 30.4h-246c42 31 94.2 50.2 150.7 50.2 92.6 0 173.7-50.2 217.3-124.8-22-38-54.3-69.8-91.3-91.8z"/><path fill="#f29f18" d="M256 297.2c-15.7 0-28.4-12.7-28.4-28.4v-39.9h56.9v39.9c-.1 15.7-12.8 28.4-28.5 28.4z"/><path fill="#595959" d="M126 293.5V336h9v-48.2c-3 1.8-6 3.7-9 5.7z"/><path fill="#fff" d="M170.8 418.8h-20.9V409h16v-32.3c0-19.5-15.9-35.4-35.4-35.4S95 357.2 95 376.7V409h16v9.8H90.1c-2.7 0-4.9-2.2-4.9-4.9v-37.2c0-24.9 20.3-45.2 45.2-45.2s45.2 20.3 45.2 45.2v37.2c.1 2.7-2.1 4.9-4.8 4.9z"/><path fill="#f29f18" d="M324.6 155.1h24.5c13.5 0 24.5-11 24.5-24.5s-11-24.5-24.5-24.5h-24.5v49zm-137.3 0h-24.5c-13.5 0-24.5-11-24.5-24.5s11-24.5 24.5-24.5h24.5v49z"/><path fill="#f4bc62" d="M256 238.8c-44.4 0-80.4-36-80.4-80.4v-55.9c0-44.4 36-80.4 80.4-80.4 44.4 0 80.4 36 80.4 80.4v55.9c0 44.4-36 80.4-80.4 80.4z"/><path fill="#f29f18" d="M255.8 22h.1c-4.2 0-8.2.4-12.2 1 38.6 5.9 68.3 39.3 68.3 79.5v55.9c0 40.3-29.6 73.7-68.2 79.6 4 .6 8.1 1 12.2 1h-.2c44.4 0 80.2-36.2 80.2-80.6v-55.9c0-44.4-35.8-80.5-80.2-80.5z"/><path fill="#734b0b" d="M344.3 125.7h9.8v9.8h-9.8zM157.9 125.7h9.8v9.8h-9.8z"/><path fill="#595959" d="M193.2 16.7v71c0 10.2-8.3 18.5-18.5 18.5h-12.4V47.5c.1-17 13.9-30.8 30.9-30.8zm125.2 0v71c0 10.2 8.3 18.5 18.5 18.5h12.4V47.5c-.1-17-13.9-30.8-30.9-30.8z"/><path fill="#017068" d="M201.4 4.9h108.8c21.5 0 39 17.5 39 39v44.9H162.4V43.9c0-21.5 17.5-39 39-39z"/><path fill="#595959" d="M211 115h25v10h-25zM231 135h10v19h-10zM276 115h25v10h-25zM271 135h10v19h-10z"/><path fill="#ebdee5" d="m222.3 178.9-7.9 5.8-27-36.9-30.1-41.1c1.8-.4 3.7-.7 5.6-.7h6.1l18.4 25.2 34.9 47.7zm132.5-72.2-30.1 41.1-27 36.9-7.9-5.8 34.9-47.7 18.4-25.2h6.1c1.9 0 3.8.3 5.6.7z"/><path fill="#00bfb6" d="M176.7 171.6c6.3 38.1 39.4 67.2 79.3 67.2s73-29.1 79.3-67.2H176.7z"/><path fill="#595959" d="M376.6 287.8v101.6h9.8v-95.9c-3.2-2-6.5-3.9-9.8-5.7z"/><circle cx="381.5" cy="407.5" r="26" fill="#fff"/><path fill="#ebdee5" d="M106.2 400.9h9.8v26h-9.8zM144.9 400.9h9.8v26h-9.8zM389.6 382.8c.8 2.5 1.3 5.2 1.3 8.1 0 14.4-11.6 26-26 26-2.8 0-5.5-.5-8.1-1.3 3.4 10.4 13.2 18 24.7 18 14.4 0 26-11.6 26-26 0-11.6-7.5-21.4-17.9-24.8z"/><path fill="#c6bec3" d="M376.6 402.6h9.8v9.8h-9.8z"/><path fill="#00bfb6" d="M200.7 4.9h77C298.8 4.9 316 22 316 43.2c0 16.9-13.7 30.7-30.7 30.7H162.4V43.2c0-21.2 17.1-38.3 38.3-38.3z"/><path fill="#3dcac3" d="M250.6 37.2h-49.4c-6.5 0-11.7-5.2-11.7-11.7 0-6.5 5.2-11.7 11.7-11.7h49.4c6.5 0 11.7 5.2 11.7 11.7-.1 6.5-5.3 11.7-11.7 11.7z"/><path fill="#017068" d="m256 171.6 5.3 5.3c1.7 1.7 1.7 4.5 0 6.2l-3.8 3.8c-.8.8-2 1.3-3.1 1.3H228c-2.4 0-4.4 2-4.4 4.4v1c0 2.4 2 4.4 4.4 4.4h55.9c2.4 0 4.4 2 4.4 4.4 0 2.4-2 4.4-4.4 4.4h-56c-2.4 0-4.4 2-4.4 4.4v1c0 2.4 2 4.4 4.4 4.4h36c1.2 0 2.3.5 3.1 1.3l.4.4c1.7 1.7 1.7 4.5 0 6.2L257.3 235c-.8.8-1.3 1.9-1.3 3.1v.7c39.9 0 73-29.1 79.3-67.2H256z"/><path fill="#f22e24" d="M251 33h10v27h-10z"/><path fill="#f22e24" d="M242 42h27v10h-27z"/></svg>